PathFileType	3	(X/Y/Z)	RCH0000005 BBF 05.c3d
DataRate	CameraRate	NumFrames	NumMarkers	Units	OrigDataRate	OrigDataStartFrame	OrigNumFrames
100.0	100.0	8	23	mm	100.0	246	453
Frame#	Time	T2			T10			MAN			LASI			RASI			LPSI			RPSI			LPAT			LKNE			LANK			LMED			LHEE			LTOE			RPAT			RKNE			RANK			RMED			RHEE			RTOE			LTHI			LTIB			RTHI			RTIB			
		X1	Y1	Z1	X2	Y2	Z2	X3	Y3	Z3	X4	Y4	Z4	X5	Y5	Z5	X6	Y6	Z6	X7	Y7	Z7	X8	Y8	Z8	X9	Y9	Z9	X10	Y10	Z10	X11	Y11	Z11	X12	Y12	Z12	X13	Y13	Z13	X14	Y14	Z14	X15	Y15	Z15	X16	Y16	Z16	X17	Y17	Z17	X18	Y18	Z18	X19	Y19	Z19	X20	Y20	Z20	X21	Y21	Z21	X22	Y22	Z22	X23	Y23	Z23	

246	2.450	961.15645	83.90892	1325.28493	931.30705	66.39236	1109.21977	1089.63555	69.77068	1274.42238	1058.92682	148.72262	915.65387	1059.11515	-42.37019	917.81024	916.23355	91.51974	952.95135	911.25899	4.75983	945.52804	1090.40949	82.21485	511.26233	1037.60952	154.08071	454.04705	947.89958	146.46237	71.69523	945.93438	62.43514	75.44396	886.99536	120.98269	53.99547	1001.98604	110.07419	66.95849	1173.10288	-20.22291	524.76335	1099.18333	-73.28949	456.91170	834.57566	-48.20747	191.23455	861.44560	27.90173	179.37273	787.05700	-4.94018	211.31498	877.83223	-41.09627	149.47948	1037.82213	232.20675	609.31655	991.20860	222.27677	278.36523	1070.26922	-145.24495	627.40877	970.80878	-128.06948	378.33089	
247	2.460	972.56311	85.18592	1326.01275	942.66678	67.49073	1110.03417	1100.98774	70.99947	1275.24154	1069.23686	149.70610	915.93194	1070.35465	-41.26488	918.80312	927.13116	91.99569	954.07150	922.35920	5.20457	946.69668	1094.24006	82.56307	510.27770	1040.65631	154.50284	453.98897	948.24679	146.59987	72.31154	946.32198	62.58314	76.10423	887.27563	121.07688	55.03025	1002.31077	110.23716	67.21931	1190.24556	-20.09027	529.77228	1118.02852	-73.56691	460.48227	863.66499	-47.29589	183.81739	891.23840	28.74344	173.33776	815.23027	-3.97354	201.75632	908.91133	-40.31378	144.15889	1043.54869	232.69682	609.24358	992.69465	222.56369	278.71780	1086.67662	-145.49739	630.82485	992.30346	-127.82609	376.06394	
248	2.470	984.03494	86.43323	1326.59074	953.97418	68.51163	1110.70801	1112.38589	72.26203	1275.80323	1079.45105	150.64145	916.08134	1081.53871	-40.20091	919.58681	937.93291	92.37967	955.02168	933.39844	5.56651	947.67382	1098.21695	82.96992	509.28656	1043.86117	154.93794	453.93538	948.63585	146.76528	72.96955	946.73888	62.75055	76.81816	887.58294	121.21627	56.13750	1002.66468	110.42498	67.50601	1206.76919	-19.76207	534.46743	1136.28862	-73.70695	463.78617	893.59177	-46.69507	175.65901	921.70716	29.33213	166.70958	844.25176	-3.40942	191.34459	940.78751	-39.72819	138.28315	1049.32266	233.17432	609.14746	994.34398	222.86322	279.08844	1102.68419	-145.63989	633.92168	1013.83131	-127.68067	373.18872	
249	2.480	995.57809	87.64380	1327.01343	965.23551	69.44715	1111.23606	1123.83627	73.54531	1276.10211	1089.57849	151.53582	916.10531	1092.68271	-39.17225	920.15220	948.64550	92.66905	955.79359	944.38995	5.84283	948.44807	1102.37018	83.45318	508.27956	1047.24326	155.39841	453.87501	949.06630	146.95942	73.66440	947.18758	62.93903	77.58622	887.91669	121.39969	57.31398	1003.04699	110.63903	67.81563	1222.63703	-19.22080	538.77070	1153.91374	-73.67833	466.74803	924.38334	-46.40674	166.93180	952.85677	29.67220	159.62135	874.16817	-3.24093	180.23096	973.46360	-39.34397	132.03120	1055.15542	233.65211	609.02149	996.16212	223.18332	279.46308	1118.17824	-145.64845	636.61186	1035.41104	-127.61359	369.76233	
250	2.490	1007.19722	88.80886	1327.27802	976.45759	70.29237	1111.61577	1135.34396	74.83467	1276.13832	1099.62976	152.39740	916.00797	1103.80220	-38.17194	920.49557	959.27755	92.86435	956.38095	955.34770	6.03357	949.01195	1106.71968	84.02044	507.24893	1050.81400	155.88983	453.79797	949.53627	147.17933	74.39197	947.66973	63.14712	78.40739	888.27573	121.62125	58.55629	1003.45595	110.87735	68.14498	1237.81059	-18.45339	542.60661	1170.85716	-73.46033	469.29896	956.05875	-46.42333	157.82405	984.68099	29.77596	152.21926	905.01676	-3.45784	168.58590	1006.93223	-39.15138	125.59097	1061.05511	234.13834	608.85921	998.14877	223.52701	279.83042	1133.05561	-145.50706	638.81569	1057.05614	-127.60548	365.85484	
251	2.500	1018.89549	89.91838	1327.38416	987.64789	71.04572	1111.84692	1146.91297	76.11463	1275.91718	1109.61734	153.23496	915.79408	1114.91282	-37.19252	920.61843	969.83992	92.96926	956.77940	966.28637	6.14164	949.36158	1111.27629	84.67017	506.18862	1054.57800	156.41160	453.69577	950.04259	147.41875	75.14926	948.18617	63.37049	79.27964	888.65855	121.87094	59.86118	1003.88912	111.13514	68.49134	1252.25191	-17.45122	545.90443	1187.07904	-73.04395	471.37885	988.62286	-46.72670	148.53687	1017.15653	29.66455	144.66032	936.81901	-4.04664	156.59901	1041.16938	-39.12442	119.15448	1067.02645	234.63679	608.65444	1000.29884	223.89294	280.18232	1147.23176	-145.20871	640.46560	1078.77512	-127.63787	361.54741	
252	2.510	1030.67466	90.96170	1327.33373	998.81473	71.70931	1111.93131	1158.54641	77.36971	1275.44868	1119.55606	154.05730	915.46858	1126.03033	-36.22650	920.52716	980.34601	92.99051	956.98636	977.22126	6.17273	949.49637	1116.04356	85.39353	505.09438	1058.53471	156.95818	453.56145	950.58125	147.66891	75.93468	948.73720	63.60266	80.20038	889.06368	122.13581	61.22595	1004.34375	111.40555	68.85298	1265.92661	-16.20985	548.60126	1202.55047	-72.43218	472.93890	1022.05938	-47.28667	139.27998	1050.23731	29.36869	137.10899	969.57324	-4.98914	144.47697	1076.12807	-39.21985	112.91254	1073.07120	235.14745	608.40150	1002.60381	224.27645	280.51380	1160.64774	-144.75573	641.51044	1100.57210	-127.69368	356.93014	
253	2.520	1042.53525	91.92806	1327.13050	1009.96733	72.28893	1111.87233	1170.24665	78.58496	1274.74690	1129.46340	154.87281	915.03629	1137.17062	-35.26679	920.23265	990.81187	92.93751	957.00086	988.16823	6.13513	949.41860	1121.02014	86.17650	503.96359	1062.68062	157.52061	453.38944	951.14806	147.91983	76.74833	949.32290	63.83600	81.16712	889.49006	122.40177	62.64899	1004.81745	111.68084	69.22958	1278.80782	-14.72889	550.64563	1217.25754	-71.63931	473.94427	1056.32338	-48.05995	130.26587	1083.84911	28.92922	129.73262	1003.24646	-6.26015	132.43916	1111.73243	-39.37773	107.04870	1079.18950	235.66740	608.09538	1005.05368	224.67095	280.82296	1173.27579	-144.15940	641.91941	1122.44735	-127.75725	352.09952	
